<svg class="border shadow-md" viewBox="0 0 1062.2577777777778 597.52" style="width: 1062.26px; height: 597.52px;" xmlns="http://www.w3.org/2000/svg" preserveAspectRatio="none"><rect class="bg" id="bg" x="0" y="0" width="1062.2577777777778" height="597.52" fill="#e9e7e7"/><path d="M 0 -22.98153846153846 L 0 -22.98&#10;                L 90.00 -11.49&#10;                L 212.45155555555556 -22.98 L 212.45155555555556 -22.98&#10;                L 324.45 -3.98&#10;                L 424.9031111111111 -22.98 L 424.9031111111111 -22.98&#10;                L 495.72 -3.98&#10;                L 637.3546666666666 -22.98 L 637.3546666666666 -22.98&#10;                L 708.17 -11.49&#10;                L 849.8062222222222 -22.98 L 849.8062222222222 -22.98&#10;                L 982.81 -11.49&#10;                L 1062.2577777777778 -22.98 L 1062.2577777777778 -22.98&#10;                L 1212.26 -11.49&#10;                L 1274.7093333333335 -22.98  V 597.52 H 0 V -22.98 Z" fill="#E9E7E7"/><path d="M 0 0 L 0 0.00&#10;                L 70.82 11.49&#10;                L 212.45155555555556 0.00 L 212.45155555555556 0.00&#10;                L 285.45 21.00&#10;                L 424.9031111111111 0.00 L 424.9031111111111 0.00&#10;                L 509.90 11.49&#10;                L 637.3546666666666 0.00 L 637.3546666666666 0.00&#10;                L 708.17 16.00&#10;                L 849.8062222222222 0.00 L 849.8062222222222 0.00&#10;                L 920.62 11.49&#10;                L 1062.2577777777778 0.00 L 1062.2577777777778 0.00&#10;                L 1139.26 11.49&#10;                L 1274.7093333333335 0.00  V 597.52 H 0 V 0.00 Z" fill="#e5e3e4"/><path d="M 0 22.98153846153846 L 0 22.98&#10;                L 131.00 44.98&#10;                L 212.45155555555556 22.98 L 212.45155555555556 22.98&#10;                L 302.45 37.98&#10;                L 424.9031111111111 22.98 L 424.9031111111111 22.98&#10;                L 544.90 34.47&#10;                L 637.3546666666666 22.98 L 637.3546666666666 22.98&#10;                L 747.35 34.47&#10;                L 849.8062222222222 22.98 L 849.8062222222222 22.98&#10;                L 983.81 34.47&#10;                L 1062.2577777777778 22.98 L 1062.2577777777778 22.98&#10;                L 1133.07 34.47&#10;                L 1274.7093333333335 22.98  V 597.52 H 0 V 22.98 Z" fill="#e1dfe1"/><path d="M 0 45.96307692307692 L 0 45.96&#10;                L 114.00 62.96&#10;                L 212.45155555555556 45.96 L 212.45155555555556 45.96&#10;                L 283.27 67.96&#10;                L 424.9031111111111 45.96 L 424.9031111111111 45.96&#10;                L 495.72 57.45&#10;                L 637.3546666666666 45.96 L 637.3546666666666 45.96&#10;                L 708.17 57.96&#10;                L 849.8062222222222 45.96 L 849.8062222222222 45.96&#10;                L 995.81 57.45&#10;                L 1062.2577777777778 45.96 L 1062.2577777777778 45.96&#10;                L 1133.07 62.96&#10;                L 1274.7093333333335 45.96  V 597.52 H 0 V 45.96 Z" fill="#dddbde"/><path d="M 0 68.94461538461537 L 0 68.94&#10;                L 70.82 89.94&#10;                L 212.45155555555556 68.94 L 212.45155555555556 68.94&#10;                L 285.45 80.44&#10;                L 424.9031111111111 68.94 L 424.9031111111111 68.94&#10;                L 495.72 86.94&#10;                L 637.3546666666666 68.94 L 637.3546666666666 68.94&#10;                L 708.17 80.44&#10;                L 849.8062222222222 68.94 L 849.8062222222222 68.94&#10;                L 920.62 80.44&#10;                L 1062.2577777777778 68.94 L 1062.2577777777778 68.94&#10;                L 1188.26 83.94&#10;                L 1274.7093333333335 68.94  V 597.52 H 0 V 68.94 Z" fill="#d9d7db"/><path d="M 0 91.92615384615384 L 0 91.93&#10;                L 149.00 107.93&#10;                L 212.45155555555556 91.93 L 212.45155555555556 91.93&#10;                L 283.27 112.93&#10;                L 424.9031111111111 91.93 L 424.9031111111111 91.93&#10;                L 579.90 103.42&#10;                L 637.3546666666666 91.93 L 637.3546666666666 91.93&#10;                L 708.17 103.42&#10;                L 849.8062222222222 91.93 L 849.8062222222222 91.93&#10;                L 920.62 103.42&#10;                L 1062.2577777777778 91.93 L 1062.2577777777778 91.93&#10;                L 1153.26 103.42&#10;                L 1274.7093333333335 91.93  V 597.52 H 0 V 91.93 Z" fill="#d5d3d8"/><path d="M 0 114.9076923076923 L 0 114.91&#10;                L 70.82 132.91&#10;                L 212.45155555555556 114.91 L 212.45155555555556 114.91&#10;                L 333.45 132.91&#10;                L 424.9031111111111 114.91 L 424.9031111111111 114.91&#10;                L 495.72 134.91&#10;                L 637.3546666666666 114.91 L 637.3546666666666 114.91&#10;                L 711.35 126.40&#10;                L 849.8062222222222 114.91 L 849.8062222222222 114.91&#10;                L 920.62 126.40&#10;                L 1062.2577777777778 114.91 L 1062.2577777777778 114.91&#10;                L 1133.07 132.91&#10;                L 1274.7093333333335 114.91  V 597.52 H 0 V 114.91 Z" fill="#d1cfd5"/><path d="M 0 137.88923076923075 L 0 137.89&#10;                L 70.82 149.38&#10;                L 212.45155555555556 137.89 L 212.45155555555556 137.89&#10;                L 283.27 156.89&#10;                L 424.9031111111111 137.89 L 424.9031111111111 137.89&#10;                L 568.90 156.89&#10;                L 637.3546666666666 137.89 L 637.3546666666666 137.89&#10;                L 708.17 149.38&#10;                L 849.8062222222222 137.89 L 849.8062222222222 137.89&#10;                L 920.62 149.38&#10;                L 1062.2577777777778 137.89 L 1062.2577777777778 137.89&#10;                L 1133.07 149.38&#10;                L 1274.7093333333335 137.89  V 597.52 H 0 V 137.89 Z" fill="#cdcbd2"/><path d="M 0 160.8707692307692 L 0 160.87&#10;                L 120.00 172.36&#10;                L 212.45155555555556 160.87 L 212.45155555555556 160.87&#10;                L 363.45 172.36&#10;                L 424.9031111111111 160.87 L 424.9031111111111 160.87&#10;                L 495.72 175.87&#10;                L 637.3546666666666 160.87 L 637.3546666666666 160.87&#10;                L 753.35 175.87&#10;                L 849.8062222222222 160.87 L 849.8062222222222 160.87&#10;                L 920.62 172.36&#10;                L 1062.2577777777778 160.87 L 1062.2577777777778 160.87&#10;                L 1200.26 182.87&#10;                L 1274.7093333333335 160.87  V 597.52 H 0 V 160.87 Z" fill="#c9c7cf"/><path d="M 0 183.85230769230768 L 0 183.85&#10;                L 70.82 195.34&#10;                L 212.45155555555556 183.85 L 212.45155555555556 183.85&#10;                L 283.27 195.85&#10;                L 424.9031111111111 183.85 L 424.9031111111111 183.85&#10;                L 495.72 204.85&#10;                L 637.3546666666666 183.85 L 637.3546666666666 183.85&#10;                L 708.17 195.34&#10;                L 849.8062222222222 183.85 L 849.8062222222222 183.85&#10;                L 920.62 197.85&#10;                L 1062.2577777777778 183.85 L 1062.2577777777778 183.85&#10;                L 1203.26 195.34&#10;                L 1274.7093333333335 183.85  V 597.52 H 0 V 183.85 Z" fill="#c5c3cc"/><path d="M 0 206.83384615384614 L 0 206.83&#10;                L 70.82 218.32&#10;                L 212.45155555555556 206.83 L 212.45155555555556 206.83&#10;                L 283.27 221.83&#10;                L 424.9031111111111 206.83 L 424.9031111111111 206.83&#10;                L 528.90 223.83&#10;                L 637.3546666666666 206.83 L 637.3546666666666 206.83&#10;                L 742.35 218.32&#10;                L 849.8062222222222 206.83 L 849.8062222222222 206.83&#10;                L 920.62 226.83&#10;                L 1062.2577777777778 206.83 L 1062.2577777777778 206.83&#10;                L 1133.07 224.83&#10;                L 1274.7093333333335 206.83  V 597.52 H 0 V 206.83 Z" fill="#c1bfc9"/><path d="M 0 229.8153846153846 L 0 229.82&#10;                L 70.82 244.82&#10;                L 212.45155555555556 229.82 L 212.45155555555556 229.82&#10;                L 337.45 241.31&#10;                L 424.9031111111111 229.82 L 424.9031111111111 229.82&#10;                L 507.90 241.31&#10;                L 637.3546666666666 229.82 L 637.3546666666666 229.82&#10;                L 708.17 241.31&#10;                L 849.8062222222222 229.82 L 849.8062222222222 229.82&#10;                L 920.62 241.31&#10;                L 1062.2577777777778 229.82 L 1062.2577777777778 229.82&#10;                L 1133.07 251.82&#10;                L 1274.7093333333335 229.82  V 597.52 H 0 V 229.82 Z" fill="#bdbbc6"/><path d="M 0 252.79692307692306 L 0 252.80&#10;                L 70.82 265.80&#10;                L 212.45155555555556 252.80 L 212.45155555555556 252.80&#10;                L 283.27 271.80&#10;                L 424.9031111111111 252.80 L 424.9031111111111 252.80&#10;                L 582.90 264.29&#10;                L 637.3546666666666 252.80 L 637.3546666666666 252.80&#10;                L 708.17 264.80&#10;                L 849.8062222222222 252.80 L 849.8062222222222 252.80&#10;                L 984.81 271.80&#10;                L 1062.2577777777778 252.80 L 1062.2577777777778 252.80&#10;                L 1133.07 264.29&#10;                L 1274.7093333333335 252.80  V 597.52 H 0 V 252.80 Z" fill="#b9b7c3"/><path d="M 0 275.7784615384615 L 0 275.78&#10;                L 83.00 287.27&#10;                L 212.45155555555556 275.78 L 212.45155555555556 275.78&#10;                L 294.45 294.78&#10;                L 424.9031111111111 275.78 L 424.9031111111111 275.78&#10;                L 495.72 287.27&#10;                L 637.3546666666666 275.78 L 637.3546666666666 275.78&#10;                L 708.17 287.27&#10;                L 849.8062222222222 275.78 L 849.8062222222222 275.78&#10;                L 920.62 287.27&#10;                L 1062.2577777777778 275.78 L 1062.2577777777778 275.78&#10;                L 1133.26 287.27&#10;                L 1274.7093333333335 275.78  V 597.52 H 0 V 275.78 Z" fill="#b5b3c0"/><path d="M 0 298.76 L 0 298.76&#10;                L 70.82 310.25&#10;                L 212.45155555555556 298.76 L 212.45155555555556 298.76&#10;                L 283.27 312.76&#10;                L 424.9031111111111 298.76 L 424.9031111111111 298.76&#10;                L 576.90 310.25&#10;                L 637.3546666666666 298.76 L 637.3546666666666 298.76&#10;                L 708.17 310.25&#10;                L 849.8062222222222 298.76 L 849.8062222222222 298.76&#10;                L 920.62 310.25&#10;                L 1062.2577777777778 298.76 L 1062.2577777777778 298.76&#10;                L 1133.07 311.76&#10;                L 1274.7093333333335 298.76  V 597.52 H 0 V 298.76 Z" fill="#b1afbd"/><path d="M 0 321.7415384615384 L 0 321.74&#10;                L 156.00 333.74&#10;                L 212.45155555555556 321.74 L 212.45155555555556 321.74&#10;                L 292.45 335.74&#10;                L 424.9031111111111 321.74 L 424.9031111111111 321.74&#10;                L 506.90 333.23&#10;                L 637.3546666666666 321.74 L 637.3546666666666 321.74&#10;                L 708.17 333.23&#10;                L 849.8062222222222 321.74 L 849.8062222222222 321.74&#10;                L 920.62 338.74&#10;                L 1062.2577777777778 321.74 L 1062.2577777777778 321.74&#10;                L 1159.26 333.23&#10;                L 1274.7093333333335 321.74  V 597.52 H 0 V 321.74 Z" fill="#adabba"/><path d="M 0 344.7230769230769 L 0 344.72&#10;                L 70.82 356.21&#10;                L 212.45155555555556 344.72 L 212.45155555555556 344.72&#10;                L 362.45 356.21&#10;                L 424.9031111111111 344.72 L 424.9031111111111 344.72&#10;                L 495.72 359.72&#10;                L 637.3546666666666 344.72 L 637.3546666666666 344.72&#10;                L 751.35 356.21&#10;                L 849.8062222222222 344.72 L 849.8062222222222 344.72&#10;                L 920.62 365.72&#10;                L 1062.2577777777778 344.72 L 1062.2577777777778 344.72&#10;                L 1176.26 365.72&#10;                L 1274.7093333333335 344.72  V 597.52 H 0 V 344.72 Z" fill="#a9a7b7"/><path d="M 0 367.70461538461535 L 0 367.70&#10;                L 70.82 379.20&#10;                L 212.45155555555556 367.70 L 212.45155555555556 367.70&#10;                L 283.27 379.20&#10;                L 424.9031111111111 367.70 L 424.9031111111111 367.70&#10;                L 495.72 379.20&#10;                L 637.3546666666666 367.70 L 637.3546666666666 367.70&#10;                L 708.17 379.20&#10;                L 849.8062222222222 367.70 L 849.8062222222222 367.70&#10;                L 920.62 379.20&#10;                L 1062.2577777777778 367.70 L 1062.2577777777778 367.70&#10;                L 1133.07 382.70&#10;                L 1274.7093333333335 367.70  V 597.52 H 0 V 367.70 Z" fill="#a5a3b4"/><path d="M 0 390.6861538461538 L 0 390.69&#10;                L 87.00 406.69&#10;                L 212.45155555555556 390.69 L 212.45155555555556 390.69&#10;                L 283.27 408.69&#10;                L 424.9031111111111 390.69 L 424.9031111111111 390.69&#10;                L 528.90 412.69&#10;                L 637.3546666666666 390.69 L 637.3546666666666 390.69&#10;                L 789.35 402.18&#10;                L 849.8062222222222 390.69 L 849.8062222222222 390.69&#10;                L 977.81 406.69&#10;                L 1062.2577777777778 390.69 L 1062.2577777777778 390.69&#10;                L 1182.26 402.18&#10;                L 1274.7093333333335 390.69  V 597.52 H 0 V 390.69 Z" fill="#a19fb1"/><path d="M 0 413.6676923076923 L 0 413.67&#10;                L 101.00 425.16&#10;                L 212.45155555555556 413.67 L 212.45155555555556 413.67&#10;                L 283.27 425.16&#10;                L 424.9031111111111 413.67 L 424.9031111111111 413.67&#10;                L 495.72 435.67&#10;                L 637.3546666666666 413.67 L 637.3546666666666 413.67&#10;                L 770.35 428.67&#10;                L 849.8062222222222 413.67 L 849.8062222222222 413.67&#10;                L 953.81 430.67&#10;                L 1062.2577777777778 413.67 L 1062.2577777777778 413.67&#10;                L 1195.26 425.16&#10;                L 1274.7093333333335 413.67  V 597.52 H 0 V 413.67 Z" fill="#9d9bae"/><path d="M 0 436.6492307692307 L 0 436.65&#10;                L 70.82 450.65&#10;                L 212.45155555555556 436.65 L 212.45155555555556 436.65&#10;                L 342.45 458.65&#10;                L 424.9031111111111 436.65 L 424.9031111111111 436.65&#10;                L 580.90 448.14&#10;                L 637.3546666666666 436.65 L 637.3546666666666 436.65&#10;                L 708.17 453.65&#10;                L 849.8062222222222 436.65 L 849.8062222222222 436.65&#10;                L 928.81 448.14&#10;                L 1062.2577777777778 436.65 L 1062.2577777777778 436.65&#10;                L 1212.26 453.65&#10;                L 1274.7093333333335 436.65  V 597.52 H 0 V 436.65 Z" fill="#9997ab"/><path d="M 0 459.6307692307692 L 0 459.63&#10;                L 116.00 471.12&#10;                L 212.45155555555556 459.63 L 212.45155555555556 459.63&#10;                L 361.45 478.63&#10;                L 424.9031111111111 459.63 L 424.9031111111111 459.63&#10;                L 495.72 471.12&#10;                L 637.3546666666666 459.63 L 637.3546666666666 459.63&#10;                L 708.17 471.12&#10;                L 849.8062222222222 459.63 L 849.8062222222222 459.63&#10;                L 1005.81 471.12&#10;                L 1062.2577777777778 459.63 L 1062.2577777777778 459.63&#10;                L 1133.07 473.63&#10;                L 1274.7093333333335 459.63  V 597.52 H 0 V 459.63 Z" fill="#9593a8"/><path d="M 0 482.61230769230764 L 0 482.61&#10;                L 70.82 497.61&#10;                L 212.45155555555556 482.61 L 212.45155555555556 482.61&#10;                L 294.45 503.61&#10;                L 424.9031111111111 482.61 L 424.9031111111111 482.61&#10;                L 495.72 494.10&#10;                L 637.3546666666666 482.61 L 637.3546666666666 482.61&#10;                L 708.17 494.10&#10;                L 849.8062222222222 482.61 L 849.8062222222222 482.61&#10;                L 920.62 494.10&#10;                L 1062.2577777777778 482.61 L 1062.2577777777778 482.61&#10;                L 1133.07 503.61&#10;                L 1274.7093333333335 482.61  V 597.52 H 0 V 482.61 Z" fill="#918fa5"/><path d="M 0 505.59384615384613 L 0 505.59&#10;                L 71.00 517.08&#10;                L 212.45155555555556 505.59 L 212.45155555555556 505.59&#10;                L 283.27 523.59&#10;                L 424.9031111111111 505.59 L 424.9031111111111 505.59&#10;                L 495.72 521.59&#10;                L 637.3546666666666 505.59 L 637.3546666666666 505.59&#10;                L 724.35 517.08&#10;                L 849.8062222222222 505.59 L 849.8062222222222 505.59&#10;                L 920.62 517.08&#10;                L 1062.2577777777778 505.59 L 1062.2577777777778 505.59&#10;                L 1133.07 517.08&#10;                L 1274.7093333333335 505.59  V 597.52 H 0 V 505.59 Z" fill="#8d8ba2"/><path d="M 0 528.5753846153846 L 0 528.58&#10;                L 154.00 546.58&#10;                L 212.45155555555556 528.58 L 212.45155555555556 528.58&#10;                L 283.27 540.07&#10;                L 424.9031111111111 528.58 L 424.9031111111111 528.58&#10;                L 495.72 540.07&#10;                L 637.3546666666666 528.58 L 637.3546666666666 528.58&#10;                L 757.35 550.58&#10;                L 849.8062222222222 528.58 L 849.8062222222222 528.58&#10;                L 920.62 540.07&#10;                L 1062.2577777777778 528.58 L 1062.2577777777778 528.58&#10;                L 1207.26 540.58&#10;                L 1274.7093333333335 528.58  V 597.52 H 0 V 528.58 Z" fill="#89879f"/><path d="M 0 551.556923076923 L 0 551.56&#10;                L 70.82 564.56&#10;                L 212.45155555555556 551.56 L 212.45155555555556 551.56&#10;                L 283.27 564.56&#10;                L 424.9031111111111 551.56 L 424.9031111111111 551.56&#10;                L 524.90 565.56&#10;                L 637.3546666666666 551.56 L 637.3546666666666 551.56&#10;                L 708.17 563.05&#10;                L 849.8062222222222 551.56 L 849.8062222222222 551.56&#10;                L 920.62 563.05&#10;                L 1062.2577777777778 551.56 L 1062.2577777777778 551.56&#10;                L 1192.26 563.05&#10;                L 1274.7093333333335 551.56  V 597.52 H 0 V 551.56 Z" fill="#85839c"/><path d="M 0 574.5384615384614 L 0 574.54&#10;                L 70.82 586.54&#10;                L 212.45155555555556 574.54 L 212.45155555555556 574.54&#10;                L 291.45 586.03&#10;                L 424.9031111111111 574.54 L 424.9031111111111 574.54&#10;                L 495.72 588.54&#10;                L 637.3546666666666 574.54 L 637.3546666666666 574.54&#10;                L 752.35 590.54&#10;                L 849.8062222222222 574.54 L 849.8062222222222 574.54&#10;                L 974.81 590.54&#10;                L 1062.2577777777778 574.54 L 1062.2577777777778 574.54&#10;                L 1133.07 588.54&#10;                L 1274.7093333333335 574.54  V 597.52 H 0 V 574.54 Z" fill="#817f99"/></svg>