<svg xmlns="http://www.w3.org/2000/svg" version="1.1" xmlns:xlink="http://www.w3.org/1999/xlink" xmlns:svgjs="http://svgjs.com/svgjs" width="1440" height="560" preserveAspectRatio="none" viewBox="0 0 1440 560"><g mask="url(&quot;#SvgjsMask1090&quot;)" fill="none"><path d="M981.656997663078-4.840909678772242L886.2915784051578 112.9255753946064 1004.0580634785365 208.29099465252654 1099.4234827364567 90.52450957914789z" fill="rgba(126, 108, 108, 0.26)" class="triangle-float2"></path><path d="M1084.8775945572884 498.59602278404975L1084.8775945572884 389.9230095607503 976.2045813339889 389.9230095607503 976.2045813339889 498.59602278404975z" fill="rgba(126, 108, 108, 0.26)" class="triangle-float3"></path><path d="M462.413,341.786C499.017,340.423,525.48,311.322,544.029,279.737C562.893,247.616,576.703,209.607,559.415,176.611C541.115,141.684,501.732,120.989,462.413,123.964C427.038,126.641,405.513,158.8,387.891,189.59C370.434,220.092,354.089,254.67,369.544,286.233C386.546,320.956,423.778,343.225,462.413,341.786" fill="rgba(126, 108, 108, 0.26)" class="triangle-float3"></path><path d="M292.4464583634576 379.5433803842709L177.93238849769637 437.7538125920682 271.0284088070439 500.54787117485864z" fill="rgba(126, 108, 108, 0.26)" class="triangle-float2"></path><path d="M108.655,159.521C143.518,161.799,180.176,148.473,197.168,117.947C213.817,88.038,202.437,52.215,184.676,22.954C167.724,-4.975,141.318,-27.171,108.655,-27.877C74.842,-28.608,42.338,-10.46,26.719,19.538C12.075,47.663,22.124,80.189,38.142,107.555C53.95,134.563,77.428,157.48,108.655,159.521" fill="rgba(126, 108, 108, 0.26)" class="triangle-float2"></path><path d="M1380.413912823667 552.9524779177693L1304.979476983818 436.7936331028666 1188.8206321689152 512.2280689427157 1264.2550680087643 628.3869137576185z" fill="rgba(126, 108, 108, 0.26)" class="triangle-float2"></path><path d="M904.6095364804995 90.21744120593146L779.4414062912101 103.37314180911136 792.5971068943901 228.5412719984007 917.7652370836794 215.3855713952208z" fill="rgba(126, 108, 108, 0.26)" class="triangle-float2"></path><path d="M1457.5124517199772 203.4468654337752L1321.4478007982 80.69870015253389 1285.4129697010248 236.78270168385285z" fill="rgba(126, 108, 108, 0.26)" class="triangle-float3"></path><path d="M115.94979819693029 68.51962855677817L41.80923959010393 128.55746912874483 101.84708016207058 202.6980277355712 175.98763876889694 142.66018716360452z" fill="rgba(126, 108, 108, 0.26)" class="triangle-float1"></path></g><defs><mask id="SvgjsMask1090"><rect width="1440" height="560" fill="#ffffff"></rect></mask><style>
            @keyframes float1 {
                0%{transform: translate(0, 0)}
                50%{transform: translate(-10px, 0)}
                100%{transform: translate(0, 0)}
            }

            .triangle-float1 {
                animation: float1 5s infinite;
            }

            @keyframes float2 {
                0%{transform: translate(0, 0)}
                50%{transform: translate(-5px, -5px)}
                100%{transform: translate(0, 0)}
            }

            .triangle-float2 {
                animation: float2 4s infinite;
            }

            @keyframes float3 {
                0%{transform: translate(0, 0)}
                50%{transform: translate(0, -10px)}
                100%{transform: translate(0, 0)}
            }

            .triangle-float3 {
                animation: float3 6s infinite;
            }
        </style></defs></svg>